<?xml version="1.0" standalone="no"?>
<!DOCTYPE svg PUBLIC "-//W3C//DTD SVG 20010904//EN"
 "http://www.w3.org/TR/2001/REC-SVG-20010904/DTD/svg10.dtd">
<svg version="1.0" xmlns="http://www.w3.org/2000/svg"
 width="700.000000pt" height="700.000000pt" viewBox="0 0 700.000000 700.000000"
 preserveAspectRatio="xMidYMid meet">
<metadata>
Created by potrace 1.11, written by Peter Selinger 2001-2013
</metadata>
<g transform="translate(0.000000,700.000000) scale(0.100000,-0.100000)"
fill="#000000" stroke="none">
<path d="M3403 6766 c-58 -19 -105 -50 -148 -97 -103 -114 -109 -294 -15 -411
l31 -38 -11 -138 c-6 -75 -13 -157 -16 -182 -2 -25 -6 -70 -8 -100 -8 -114
-18 -216 -22 -232 -3 -11 -15 -18 -31 -18 -44 0 -252 -50 -357 -86 -181 -63
-406 -179 -537 -279 l-56 -42 -179 138 c-98 77 -252 196 -342 266 -89 70 -167
130 -171 133 -5 3 -11 21 -13 40 -10 70 -58 133 -126 166 -74 36 -195 12 -251
-49 -49 -54 -68 -160 -42 -230 25 -64 118 -135 181 -137 20 -1 51 -34 160
-176 74 -97 195 -252 268 -345 72 -93 132 -173 132 -178 0 -5 -25 -45 -56 -89
-157 -220 -296 -556 -336 -810 -8 -57 -17 -83 -28 -87 -8 -2 -55 -7 -105 -10
-49 -4 -106 -8 -125 -10 -19 -2 -69 -6 -110 -10 -41 -3 -100 -8 -130 -11 -169
-15 -177 -15 -207 10 -130 109 -332 93 -446 -34 -142 -158 -103 -400 81 -505
113 -64 278 -50 364 31 25 25 30 26 110 19 45 -3 99 -8 118 -10 19 -3 67 -7
105 -10 80 -6 210 -17 240 -20 11 -1 38 -3 60 -4 55 -2 62 -8 69 -68 3 -28 8
-57 11 -65 2 -7 7 -24 9 -38 3 -14 14 -59 25 -100 18 -68 28 -98 75 -228 40
-107 154 -314 238 -429 37 -50 46 -78 31 -85 -5 -1 -30 -32 -58 -68 -27 -36
-52 -67 -56 -70 -3 -3 -19 -23 -35 -45 -77 -108 -378 -487 -388 -490 -6 -2
-32 -9 -58 -15 -108 -28 -176 -156 -143 -267 48 -160 243 -211 361 -95 31 31
63 97 64 129 0 16 23 41 78 84 42 33 86 68 97 77 11 10 59 46 105 82 47 35 87
67 90 70 3 3 34 27 70 55 36 27 72 55 80 62 90 73 172 133 180 133 6 0 34 -17
63 -38 214 -155 536 -299 756 -337 19 -3 37 -8 41 -10 4 -3 32 -7 61 -11 61
-7 68 -14 70 -64 0 -19 2 -43 4 -52 2 -9 6 -61 10 -115 3 -54 8 -114 10 -133
2 -19 6 -69 9 -110 4 -41 9 -103 12 -137 5 -55 3 -65 -17 -85 -12 -13 -33 -48
-47 -78 -22 -45 -26 -69 -26 -135 1 -67 5 -89 29 -138 33 -67 97 -130 163
-160 37 -17 67 -21 137 -22 81 0 95 3 140 29 127 73 187 177 180 311 -4 70
-35 149 -76 193 -19 21 -20 31 -15 90 4 37 9 96 11 132 3 36 7 85 10 110 2 25
7 83 11 130 4 47 8 96 10 110 1 14 2 44 3 67 1 45 4 48 77 58 22 3 55 10 73
15 17 5 34 9 36 9 49 -2 300 88 443 157 119 58 323 182 338 205 12 20 40 4
177 -103 80 -62 159 -124 177 -138 18 -14 59 -45 90 -70 31 -25 71 -56 89 -70
146 -111 191 -152 191 -173 1 -32 33 -98 64 -129 127 -125 345 -51 369 125 12
92 -42 190 -125 227 -26 11 -58 20 -72 20 -13 0 -26 4 -28 9 -1 5 -29 42 -60
83 -32 40 -87 111 -123 158 -36 47 -71 92 -78 100 -7 8 -68 87 -137 175 -68
88 -128 163 -132 166 -4 3 13 34 39 70 178 244 325 599 360 871 7 55 6 54 118
63 44 4 96 8 115 10 19 2 73 6 120 10 47 3 101 8 120 10 19 2 71 7 116 10 76
6 82 5 110 -18 159 -133 408 -78 501 111 24 49 28 69 28 142 0 66 -5 96 -22
132 -30 66 -93 130 -160 163 -49 25 -70 29 -139 29 -73 0 -88 -3 -149 -34 -37
-19 -70 -40 -72 -48 -5 -13 -62 -12 -198 3 -22 2 -80 7 -129 10 -49 4 -98 8
-110 10 -11 2 -61 6 -111 10 -123 8 -128 9 -131 30 -45 305 -180 643 -356 887
-26 37 -48 72 -48 78 0 5 61 87 135 182 74 95 142 182 150 193 9 11 69 88 133
172 94 122 122 152 142 153 73 2 169 85 188 163 27 107 -30 218 -131 256 -121
46 -255 -20 -288 -143 -6 -23 -13 -46 -14 -52 -2 -6 -132 -112 -290 -235 -359
-280 -398 -309 -408 -309 -5 0 -26 13 -46 29 -105 83 -330 204 -494 265 -112
42 -303 93 -382 102 -38 5 -56 12 -59 23 -4 14 -8 57 -21 221 -10 129 -16 199
-19 235 -17 160 -17 205 -3 211 8 3 30 35 48 72 31 59 34 74 33 146 0 62 -6
93 -23 130 -32 68 -102 139 -164 166 -64 28 -174 36 -234 16z"/>
</g>
</svg>
