<svg id="Layer_3" enable-background="new 0 0 64 64" height="512" viewBox="0 0 64 64" width="512" xmlns="http://www.w3.org/2000/svg"><g><path d="m59 29c-.841 0-1.598.348-2.143.905l-6.055-.505c-.461-3.363-1.797-6.44-3.778-9.002l4.976-6.398c1.105 0 2-.895 2-2s-.895-2-2-2-2 .895-2 2l-6.398 4.977c-2.562-1.981-5.639-3.317-9.002-3.778l-.505-6.055c.557-.546.905-1.303.905-2.144 0-1.657-1.343-3-3-3s-3 1.343-3 3c0 .841.348 1.598.905 2.143l-.505 6.055c-3.363.461-6.44 1.797-9.002 3.778l-6.398-4.976c0-1.105-.895-2-2-2s-2 .895-2 2 .895 2 2 2l4.977 6.398c-1.981 2.562-3.317 5.639-3.778 9.002l-6.055.505c-.546-.557-1.303-.905-2.144-.905-1.657 0-3 1.343-3 3s1.343 3 3 3c.841 0 1.598-.348 2.143-.905l6.055.505c.461 3.363 1.797 6.44 3.778 9.002l-4.976 6.398c-1.105 0-2 .895-2 2s.895 2 2 2 2-.895 2-2l6.398-4.977c2.562 1.981 5.639 3.317 9.002 3.778l.505 6.055c-.557.546-.905 1.303-.905 2.144 0 1.657 1.343 3 3 3s3-1.343 3-3c0-.841-.348-1.598-.905-2.143l.505-6.055c3.363-.461 6.44-1.797 9.002-3.778l6.398 4.976c0 1.105.895 2 2 2s2-.895 2-2-.895-2-2-2l-4.977-6.398c1.981-2.562 3.317-5.639 3.778-9.002l6.055-.505c.546.557 1.303.905 2.144.905 1.657 0 3-1.343 3-3s-1.343-3-3-3z" fill="#3b5892"/><g fill="#4c6cb5"><circle cx="22" cy="31" r="3"/><circle cx="36" cy="41" r="4"/><circle cx="37" cy="24" r="2"/></g><g><path d="m26 22h-2v-1c0-1.103.897-2 2-2v-1h2v1c0 1.103-.897 2-2 2z" fill="#4c6cb5"/></g><g><path d="m26 43h-2v-1c0-1.103.897-2 2-2v-1h2v1c0 1.103-.897 2-2 2z" fill="#4c6cb5"/></g><g><path d="m44 34h-2v-1c0-1.103.897-2 2-2v-1h2v1c0 1.103-.897 2-2 2z" fill="#4c6cb5"/></g></g></svg>